<?xml version="1.0" standalone="no"?>
<!DOCTYPE svg PUBLIC "-//W3C//DTD SVG 20010904//EN"
 "http://www.w3.org/TR/2001/REC-SVG-20010904/DTD/svg10.dtd">
<svg version="1.0" xmlns="http://www.w3.org/2000/svg"
 width="512.000000pt" height="512.000000pt" viewBox="0 0 512.000000 512.000000"
 preserveAspectRatio="xMidYMid meet">
<metadata>
Created by potrace 1.11, written by Peter Selinger 2001-2013
</metadata>
<g transform="translate(0.000000,512.000000) scale(0.100000,-0.100000)"
fill="#000000" stroke="none">
<path d="M1146 5109 c-197 -26 -400 -104 -576 -222 -96 -64 -273 -241 -337
-337 -101 -150 -171 -318 -210 -500 -17 -80 -18 -170 -18 -1490 0 -1320 1
-1410 18 -1490 59 -276 173 -488 366 -681 193 -193 405 -307 681 -366 80 -17
170 -18 1490 -18 1320 0 1410 1 1490 18 541 116 931 506 1047 1047 17 80 18
170 18 1490 0 1320 -1 1410 -18 1490 -59 276 -173 488 -366 681 -154 154 -313
253 -513 320 -199 67 -93 63 -1618 65 -773 1 -1415 -2 -1454 -7z m1741 -879
c36 -21 61 -44 80 -77 l28 -48 3 -562 3 -562 582 -3 c581 -3 582 -3 624 -25
50 -27 87 -73 103 -128 8 -27 10 -121 8 -291 l-3 -251 -30 -48 c-20 -32 -45
-56 -74 -72 l-44 -23 -584 0 -583 0 0 -568 0 -568 -26 -53 c-32 -64 -86 -105
-155 -120 -65 -14 -453 -14 -518 0 -69 15 -123 56 -155 120 l-26 53 0 568 0
568 -583 0 -584 0 -44 23 c-29 16 -54 40 -74 72 l-30 48 -3 251 c-2 170 0 264
8 291 16 55 53 101 103 128 42 22 43 22 624 25 l582 3 3 562 3 562 28 48 c19
33 44 56 80 77 l52 30 275 0 275 0 52 -30z"/>
</g>
</svg>
